<?xml version="1.0" encoding="UTF-8"?>
<svg id="a" data-name="Layer_1" xmlns="http://www.w3.org/2000/svg" viewBox="0 0 861.56 750.03">
  <g id="b" data-name="Logo">
    <path d="M284.94,379c12,10.59,23.49,21.69,34.47,33.3,65.86-49.71,156.69-49.71,222.55,0,11-11.58,22.44-22.72,34.48-33.3-84.75-68.45-206.77-68.45-291.5,0Z"/>
    <path d="M452.4,35.3L432.19,0l-20.23,35.1c13.48-.48,26.97-.36,40.44.2Z"/>
    <path d="M620.78,329.5l-47.54-83.06c-89-40.41-193-40.87-282.38-1.25l-47,81.65c110.4-88.61,267.86-87.5,377,2.66h-.08Z"/>
    <path d="M523.71,159.86l-31.18-54.46c-40.09-5.46-80.73-5.59-120.85-.4l-31.24,54.24c60.38-13.4,122.98-13.19,183.27.62Z"/>
    <path d="M362.05,463.45c28.59,39.05,51.69,81.83,68.64,127.16,16.95-45.32,40.04-88.11,68.62-127.16-41.03-29.41-96.23-29.41-137.26,0Z"/>
    <path d="M145.13,498.16l-23,39.86c66.43,51.27,107.98,128.33,114.33,212h45.86c-6.74-100.75-56.54-191.7-137.19-251.86Z"/>
    <path d="M88.62,596.22l-24.19,42c31.79,29.32,52.22,68.91,57.7,111.81h47.65c-5.9-59.91-35.03-115.13-81.16-153.81Z"/>
    <path d="M0,750h54.84c-3.87-19.13-12.42-37-24.9-52L0,750Z"/>
    <path d="M202.56,398.49l-24,41.69c101.27,72.54,163.33,185.17,170.33,309.82h48c-7.41-140.55-79.62-270.64-194.33-351.51Z"/>
    <path d="M691.56,750h47.71c5.56-43.05,26.13-82.77,58.09-112.15l-24.09-42.07c-46.45,38.67-75.8,94.07-81.71,154.22Z"/>
    <path d="M739.9,537.48l-22.83-39.87c-80.1,59.84-131,152.4-138,252.39h45.81c6.36-83.98,48.19-161.27,115.02-212.52Z"/>
    <path d="M831.69,697.82c-12.58,15.04-21.21,32.97-25.13,52.18h55l-29.87-52.18Z"/>
    <path d="M683.78,439.53l-23.93-41.79c-115.34,80.81-188,211.26-195.33,352.26h48c7.26-123.69,70.79-238.43,171.26-310.47Z"/>
  </g>
</svg>